<?xml version="1.0" standalone="no"?>
<!DOCTYPE svg PUBLIC "-//W3C//DTD SVG 20010904//EN"
 "http://www.w3.org/TR/2001/REC-SVG-20010904/DTD/svg10.dtd">
<svg version="1.0" xmlns="http://www.w3.org/2000/svg"
 width="500.000000pt" height="500.000000pt" viewBox="0 0 500.000000 500.000000"
 preserveAspectRatio="xMidYMid meet">

<g transform="translate(0.000000,500.000000) scale(0.100000,-0.100000)"
fill="#000000" stroke="none">
<path d="M2530 3675 c-21 -22 -30 -25 -65 -19 -31 4 -56 0 -105 -20 -37 -15
-85 -26 -114 -27 -50 -1 -50 -1 -18 -11 42 -14 41 -24 -6 -31 -29 -5 -41 -14
-56 -42 -11 -19 -23 -35 -27 -35 -10 0 -36 27 -56 57 -9 13 -25 29 -37 35 -17
9 -16 6 6 -18 l27 -29 -60 -1 -60 -1 32 33 c18 19 28 34 21 34 -6 0 -28 -20
-48 -44 -21 -25 -50 -50 -64 -56 l-28 -11 51 -47 c27 -26 56 -61 63 -79 17
-39 6 -107 -24 -155 -22 -34 -30 -32 -11 4 19 36 1 113 -36 151 -18 19 -35 42
-36 51 -6 25 -24 15 -21 -11 4 -26 -3 -28 -40 -11 -35 17 -31 56 8 80 18 11
23 18 13 18 -18 0 -72 -54 -148 -147 -64 -78 -86 -91 -103 -63 -22 35 -56 26
-141 -41 -48 -39 -64 -45 -189 -73 -150 -34 -315 -127 -593 -336 -277 -208
-334 -301 -270 -439 34 -71 93 -141 179 -208 39 -31 161 -144 271 -252 110
-108 233 -223 272 -256 40 -32 73 -65 73 -71 0 -7 -16 -76 -34 -153 -47 -190
-56 -291 -54 -591 1 -166 -2 -279 -10 -325 -24 -130 -64 -299 -98 -408 -19
-60 -34 -113 -34 -118 0 -5 171 -9 419 -9 l420 0 4 38 4 37 1 -37 c1 -21 7
-38 12 -38 6 0 10 5 10 10 0 6 7 10 16 10 8 0 12 5 9 10 -4 6 -11 8 -16 5 -14
-9 -11 39 4 54 10 10 9 11 -5 6 -26 -10 -23 16 13 121 35 103 89 307 89 338 0
12 9 27 20 34 12 7 19 16 16 21 -3 4 1 8 9 8 15 0 19 -10 16 -33 -1 -7 5 -14
14 -18 8 -3 23 -24 32 -48 9 -23 19 -36 21 -30 2 7 7 10 12 7 11 -7 7 13 -10
48 -7 15 -19 27 -27 27 -7 0 -13 5 -13 10 0 11 189 10 196 -1 2 -4 -50 -62
-116 -130 -66 -68 -120 -128 -120 -132 0 -19 238 -317 253 -317 5 0 -13 26
-40 57 -27 32 -69 85 -93 117 -24 33 -59 77 -79 99 l-35 39 69 66 c38 37 95
100 127 140 43 53 64 72 82 72 14 0 27 -6 29 -12 4 -10 6 -10 6 0 1 19 97 16
105 -4 5 -14 7 -14 22 0 32 33 55 19 186 -113 70 -71 128 -132 128 -136 0 -4
-20 -35 -44 -69 -96 -135 -167 -248 -160 -254 3 -4 8 -2 11 4 2 5 45 72 96
148 125 186 120 176 97 201 -24 26 -25 41 -4 49 8 3 13 10 9 16 -3 5 1 23 10
40 15 28 15 30 -4 30 -11 0 -23 -4 -26 -10 -3 -5 -2 -10 4 -10 6 0 8 -7 5 -15
-4 -8 -12 -15 -19 -15 -7 0 -12 -6 -11 -13 0 -6 -2 -14 -6 -17 -8 -6 -191 160
-184 167 5 5 96 11 272 17 85 3 130 9 152 20 l31 16 11 -58 c7 -31 19 -73 27
-94 14 -35 13 -38 -12 -76 -15 -23 -25 -48 -23 -57 1 -9 26 -33 53 -52 31 -21
40 -25 23 -10 -15 14 -37 32 -49 41 -22 15 -22 15 -4 56 26 57 35 54 39 -12 1
-10 9 -23 17 -30 18 -14 30 -55 67 -218 0 -3 3 -12 6 -20 3 -8 10 -34 16 -57
16 -65 29 -51 14 15 -19 81 -19 84 14 65 16 -9 37 -37 51 -71 46 -103 32 -37
-24 113 -86 231 -168 492 -218 695 -98 397 -167 689 -182 770 -9 47 -28 142
-42 212 -13 70 -23 133 -21 139 2 7 16 -48 31 -122 61 -301 99 -465 211 -899
119 -466 140 -542 181 -648 19 -51 35 -97 35 -102 0 -5 19 -55 41 -110 l42
-100 138 0 139 0 -6 33 c-31 185 -123 425 -234 617 -36 62 -85 201 -105 296
-22 111 -68 269 -115 404 -70 197 -150 442 -165 505 -15 63 -7 174 16 217 16
30 18 19 6 -37 -19 -96 24 -270 167 -665 18 -52 51 -171 71 -265 49 -224 79
-306 186 -513 93 -180 117 -248 165 -464 l28 -128 259 0 259 0 -7 28 c-3 15
-10 83 -15 152 -9 134 -35 254 -100 460 -80 258 -117 424 -134 610 -9 96 -23
204 -31 240 -8 36 -14 76 -15 90 0 29 13 38 193 142 179 103 425 271 505 344
74 68 118 134 147 222 21 65 14 114 -25 175 -31 49 -271 272 -383 355 -163
121 -430 244 -530 244 -41 0 -55 6 -95 38 -26 21 -63 54 -81 74 -45 46 -77 47
-113 4 -26 -32 -27 -32 -46 -15 -11 10 -37 66 -57 125 -39 114 -67 162 -93
162 -13 0 -11 -4 7 -16 26 -19 61 -91 87 -180 9 -33 25 -70 35 -83 11 -13 19
-27 19 -31 0 -4 -20 -41 -45 -82 -25 -42 -45 -81 -45 -87 0 -15 5 -17 -102 33
l-84 39 -27 97 c-15 54 -27 100 -27 104 0 4 13 -3 29 -15 17 -12 33 -38 40
-62 17 -58 33 -88 53 -101 24 -14 30 -4 18 28 -5 15 -10 69 -10 119 l0 92 40
18 c45 19 53 32 14 23 -23 -6 -26 -4 -21 13 3 12 1 19 -4 15 -5 -3 -9 4 -9 15
0 25 3 25 -45 1 l-40 -20 -8 22 c-9 26 -3 33 43 47 28 9 29 10 5 5 -16 -3 -58
-8 -92 -11 -54 -5 -63 -3 -79 16 -10 12 -22 21 -26 21 -5 0 -26 18 -48 40 -22
22 -35 40 -28 40 24 0 -3 13 -39 19 -32 5 -38 11 -47 41 l-10 35 -5 -33 -6
-34 -45 35 c-43 32 -83 57 -93 57 -3 0 -3 -8 0 -18 5 -23 -19 -45 -40 -36 -22
8 -30 39 -17 64 15 28 -2 25 -30 -5z m-472 -171 c20 -4 22 -9 21 -72 -1 -37
-4 -55 -6 -39 -5 31 -29 49 -110 82 -56 23 -56 24 -28 30 17 4 34 8 40 9 9 2
41 -1 83 -10z m49 -36 c-3 -8 -6 -5 -6 6 -1 11 2 17 5 13 3 -3 4 -12 1 -19z
m-110 -26 c21 -13 43 -66 43 -103 0 -8 -7 -24 -15 -35 -15 -18 -15 -18 -10 6
8 36 -6 67 -55 123 -40 45 -41 47 -14 35 16 -7 39 -19 51 -26z m1027 -58 c-16
-23 -18 -24 -33 -9 -14 14 -14 17 -1 25 8 5 23 10 33 10 16 0 17 -1 1 -26z
m52 -64 l-1 -79 -22 22 c-26 27 -32 76 -14 111 27 49 39 32 37 -54z m-1250 33
c23 -31 17 -102 -11 -139 -14 -18 -34 -35 -44 -39 -29 -9 -14 -35 19 -35 27 0
50 17 54 42 6 32 18 57 31 62 12 4 15 -5 15 -47 0 -48 -3 -54 -33 -73 -17 -11
-48 -24 -67 -28 -19 -3 -46 -15 -59 -25 l-25 -19 -44 99 -45 100 39 34 c22 19
46 32 55 29 8 -2 28 9 45 26 33 34 51 37 70 13z m111 -130 c-11 -16 -5 -55 10
-60 6 -2 14 5 18 16 7 23 25 29 25 8 0 -44 122 -372 188 -502 87 -173 189
-309 251 -335 34 -14 33 -14 172 76 93 60 151 119 188 192 34 64 151 375 171
452 7 24 20 62 30 85 10 22 20 49 22 60 2 11 10 -9 17 -45 9 -48 10 -82 2
-129 -6 -36 -8 -67 -6 -70 3 -2 5 3 5 12 0 26 97 23 163 -5 69 -28 70 -30 59
-72 -15 -51 5 -70 108 -106 97 -33 100 -34 100 -19 0 33 150 279 171 279 6 0
-2 -17 -18 -37 -43 -56 -112 -169 -132 -216 -14 -35 -15 -45 -4 -57 96 -112
118 -131 212 -176 85 -42 211 -134 211 -154 0 -17 -50 -19 -125 -4 -127 25
-158 34 -193 61 -44 33 -139 55 -183 43 -44 -13 -131 -13 -163 0 -15 5 -68 13
-119 16 l-93 7 4 26 c4 31 -12 48 -80 84 l-46 24 -31 -66 c-17 -36 -54 -133
-84 -216 l-54 -150 -2 -160 c-2 -115 2 -179 13 -225 8 -36 29 -136 46 -223 17
-87 42 -199 56 -250 22 -83 43 -173 105 -452 28 -123 121 -441 159 -544 25
-70 29 -91 22 -125 l-8 -41 -21 60 c-11 33 -35 98 -53 145 -17 47 -36 110 -42
140 -5 30 -14 63 -19 72 -9 17 -11 17 -30 -1 -30 -28 -89 -32 -512 -37 -323
-3 -393 -1 -416 11 -19 9 -37 35 -56 76 l-28 62 11 196 c9 167 15 211 40 296
34 117 142 406 205 550 44 102 64 179 48 189 -5 3 -12 41 -16 83 -4 43 -20
118 -36 167 -16 49 -29 97 -29 107 0 21 -52 173 -130 379 -82 218 -121 363
-127 467 -3 50 -2 104 2 120 7 27 8 26 20 -22 7 -30 8 -55 2 -62z m103 52
l-31 -45 27 -35 c15 -21 33 -34 41 -31 9 4 13 -5 13 -34 0 -22 4 -40 9 -40 14
0 24 -119 14 -164 l-9 -39 -26 69 c-39 100 -79 235 -80 265 -1 15 12 42 28 63
41 51 51 45 14 -9z m940 25 c0 -5 -5 -10 -11 -10 -5 0 -7 5 -4 10 3 6 8 10 11
10 2 0 4 -4 4 -10z m-1426 -155 c35 -73 73 -182 65 -188 -12 -11 -69 -15 -69
-6 0 19 -80 181 -106 216 l-25 33 33 29 33 30 18 -22 c9 -12 32 -53 51 -92z
m762 104 c4 -7 22 -9 45 -6 l39 5 -21 -29 c-11 -16 -24 -29 -29 -29 -19 0 -59
23 -64 37 -11 27 15 46 30 22z m674 -11 c0 -19 -2 -20 -10 -8 -13 19 -13 30 0
30 6 0 10 -10 10 -22z m-398 -44 c23 4 47 11 53 16 6 5 20 1 35 -10 l25 -20
-43 0 c-36 0 -43 -3 -40 -17 2 -14 16 -19 56 -23 29 -3 56 -10 60 -15 4 -6 22
-15 40 -22 l33 -12 -6 29 c-4 16 -2 37 4 47 8 16 10 15 15 -7 8 -33 25 -184
22 -187 -1 -2 -25 5 -52 14 -27 9 -43 18 -36 21 24 8 11 24 -40 47 -31 14 -45
24 -33 24 11 1 33 -6 49 -14 16 -9 31 -14 33 -12 9 9 -28 28 -76 40 -30 7 -51
17 -51 25 0 7 -8 12 -17 10 -25 -4 -32 -68 -8 -68 9 0 14 -4 11 -9 -4 -5 -22
-5 -46 1 -27 7 -49 7 -70 0 -26 -10 -35 -8 -67 13 -43 30 -76 31 -123 7 -46
-25 -48 -40 -5 -48 20 -3 34 -8 32 -11 -3 -2 -36 -8 -73 -14 -38 -5 -81 -12
-95 -15 l-26 -5 8 51 c4 27 17 79 29 114 l22 64 39 -16 40 -15 -27 -29 c-29
-29 -26 -51 4 -30 34 24 68 34 126 38 64 3 75 9 59 25 -8 8 -8 18 -1 35 l11
23 44 -26 c36 -21 51 -24 85 -19z m170 -26 c-4 -4 -17 -5 -29 -2 -14 4 -19 11
-16 25 5 17 6 17 28 1 13 -9 20 -20 17 -24z m-1335 -41 c17 -26 46 -83 64
-128 29 -70 36 -79 54 -74 11 3 45 13 75 21 76 21 102 39 95 67 -4 16 1 29 18
45 19 18 37 23 100 25 l77 2 26 -85 c13 -47 38 -123 54 -169 17 -45 30 -90 30
-100 0 -9 -15 -28 -33 -43 -19 -14 -42 -43 -51 -62 -17 -36 -17 -36 -81 -36
-35 0 -90 -8 -122 -17 -64 -19 -126 -21 -250 -8 -66 6 -87 5 -105 -7 -33 -22
-74 -30 -114 -22 -41 8 -43 17 -7 47 14 12 34 30 42 40 9 10 44 47 79 82 34
34 62 68 62 74 0 7 11 27 25 45 14 18 25 42 25 53 0 12 7 23 15 27 11 4 13 10
6 23 -5 10 -25 52 -43 93 -18 41 -48 94 -66 119 -19 24 -28 41 -20 39 7 -2 27
-25 45 -51z m-58 -11 c-2 -2 -17 -6 -34 -9 l-30 -6 30 13 c26 12 47 13 34 2z
m2221 -27 c0 -4 -31 -57 -70 -119 -38 -62 -74 -128 -80 -146 -10 -29 -15 -34
-33 -28 -12 3 -25 9 -30 13 -17 16 36 127 121 253 44 67 45 67 68 50 13 -9 24
-20 24 -23z m-646 -4 c-7 -16 -24 -21 -24 -6 0 8 7 13 27 20 1 1 0 -6 -3 -14z
m-1705 -9 c-2 -2 -70 -31 -151 -63 -175 -71 -430 -217 -578 -330 l-45 -35 49
47 c127 120 425 281 696 378 19 7 35 8 29 3z m1195 -27 c-8 -14 -24 -10 -24 6
0 9 6 12 15 9 8 -4 12 -10 9 -15z m-98 -16 c-2 -2 -11 0 -20 3 -14 5 -15 9 -5
15 12 7 34 -10 25 -18z m257 3 c15 -4 27 -10 27 -15 0 -5 -12 -17 -27 -26 -46
-29 -123 -96 -123 -106 0 -9 149 105 160 122 7 10 80 -11 80 -23 0 -4 16 -8
35 -8 49 0 102 -24 110 -49 3 -12 11 -19 16 -16 16 11 10 -25 -22 -118 -67
-196 -132 -289 -250 -362 -24 -15 -61 -38 -81 -52 -41 -28 -83 -33 -101 -13
-9 10 -9 11 1 6 22 -13 12 9 -13 27 -15 10 -25 13 -25 7 0 -7 -20 12 -45 41
-46 55 -51 68 -17 50 12 -6 29 -11 39 -10 17 0 16 1 -1 8 -19 7 -19 8 -1 14
10 4 16 10 13 13 -3 2 -16 0 -29 -5 -29 -10 -54 4 -61 34 -2 11 -10 19 -16 17
-22 -4 -23 24 -3 71 11 26 17 47 12 47 -4 0 -16 -19 -25 -42 l-17 -43 -34 67
c-35 67 -75 194 -75 235 0 28 28 58 64 67 15 4 70 11 124 16 59 5 122 19 162
34 36 14 72 23 80 21 8 -2 27 -6 43 -9z m62 4 c-3 -5 -12 -10 -18 -10 -7 0 -6
4 3 10 19 12 23 12 15 0z m95 -14 c0 -3 -4 -8 -10 -11 -5 -3 -10 -1 -10 4 0 6
5 11 10 11 6 0 10 -2 10 -4z m162 -57 c-17 -50 -20 -52 -30 -32 -17 31 -15 53
6 60 9 4 21 13 25 20 17 29 16 5 -1 -48z m42 -338 c3 -4 3 -11 0 -14 -8 -8
-34 3 -34 14 0 11 27 12 34 0z m-1079 -96 l30 -14 -30 6 c-16 3 -37 9 -45 14
-27 15 11 10 45 -6z m-356 -44 c10 -6 1 -8 -26 -4 -33 4 -52 -1 -102 -27 -51
-27 -65 -31 -84 -22 -21 10 -21 11 8 11 17 1 52 12 79 26 51 26 100 32 125 16z
m156 -21 c-11 -5 -27 -9 -35 -9 -9 0 -8 4 5 9 11 5 27 9 35 9 9 0 8 -4 -5 -9z
m407 -46 c3 -27 7 -100 7 -161 1 -83 4 -113 14 -114 9 0 9 -2 -1 -6 -6 -2 -9
-9 -6 -14 3 -6 1 -15 -5 -22 -5 -7 -14 -35 -19 -62 l-10 -50 -2 45 c-2 65 -9
93 -23 102 -8 5 -7 8 6 8 15 0 17 11 17 96 0 110 12 109 -105 10 l-70 -60 60
63 c33 34 72 70 87 79 29 17 49 73 29 80 -6 2 -11 17 -11 34 0 48 24 27 32
-28z m-475 40 c-3 -3 -12 -4 -19 -1 -8 3 -5 6 6 6 11 1 17 -2 13 -5z m433 -65
c0 -3 -15 -17 -34 -30 -19 -13 -59 -48 -90 -76 l-55 -52 -21 26 c-16 21 -18
29 -8 42 22 28 81 85 123 118 l40 32 22 -27 c13 -15 23 -30 23 -33z m1300 36
c40 -12 42 -13 15 -14 -16 0 -48 8 -70 19 -41 21 -27 20 55 -5z m147 -11 c-3
-3 -12 -4 -19 -1 -8 3 -5 6 6 6 11 1 17 -2 13 -5z m-632 -86 l-6 -23 16 22 17
22 60 -47 c114 -89 104 -76 82 -105 l-20 -25 -74 49 c-40 27 -74 49 -76 49
-14 0 -1 -50 14 -54 9 -3 37 -24 62 -47 l45 -41 -60 41 c-59 40 -60 41 -67 19
-3 -13 -6 -42 -7 -65 -1 -27 -6 -43 -13 -43 -7 0 -5 -5 5 -11 13 -8 15 -14 7
-29 -5 -10 -11 -45 -12 -77 l-2 -58 -3 54 c-2 29 -11 64 -20 77 -8 13 -11 24
-5 24 10 0 17 48 27 175 7 90 13 115 26 115 6 0 8 -10 4 -22z m-98 -175 c-3
-10 -5 -4 -5 12 0 17 2 24 5 18 2 -7 2 -21 0 -30z m-847 -112 c0 -41 -2 -72
-4 -70 -2 2 -6 42 -10 89 -4 58 -3 80 4 70 5 -8 10 -48 10 -89z m300 -136
c-12 -67 -40 -158 -46 -152 -2 2 6 35 17 73 13 42 23 115 27 189 l7 120 3 -85
c2 -47 -2 -112 -8 -145z m537 158 c-2 -16 -4 -5 -4 22 0 28 2 40 4 28 2 -13 2
-35 0 -50z m-858 -169 c-12 -48 -69 -168 -76 -160 -2 2 12 39 31 82 19 44 38
92 41 107 4 15 9 26 12 24 2 -3 -2 -26 -8 -53z m1597 -141 c5 -10 20 -35 33
-55 32 -53 18 -47 -19 8 -26 36 -34 43 -46 33 -20 -16 -19 -19 27 -83 34 -47
43 -55 55 -45 8 7 13 18 10 26 -3 8 -1 11 4 8 18 -11 11 -33 -21 -70 -56 -64
-63 -64 -115 7 -25 35 -49 69 -52 76 -5 14 85 112 103 112 5 0 15 -8 21 -17z
m-1777 -278 c-16 -50 -27 -73 -24 -52 6 39 45 150 51 144 2 -1 -10 -43 -27
-92z m-60 -251 c-35 -166 -37 -175 -43 -304 -7 -121 -25 -274 -32 -267 -5 5
24 357 36 442 13 86 53 252 57 238 2 -6 -6 -55 -18 -109z m281 -624 c-12 -103
-47 -266 -62 -290 -7 -11 -8 -8 -3 10 34 135 56 276 63 395 6 123 7 130 10 60
2 -44 -2 -123 -8 -175z m-369 -90 c-47 -265 -63 -346 -83 -404 -45 -134 -33
-48 32 234 24 107 50 240 51 271 2 19 3 18 7 -6 2 -16 -1 -59 -7 -95z"/>
<path d="M1711 3140 c26 -50 34 -52 14 -4 -8 20 -15 38 -15 40 0 2 -4 4 -10 4
-5 0 0 -18 11 -40z"/>
<path d="M2962 2835 c-17 -37 -14 -45 4 -12 9 16 14 31 11 33 -2 2 -9 -7 -15
-21z"/>
<path d="M2537 1733 c-5 -9 -10 -50 -8 -70 1 -7 9 -13 19 -13 14 0 15 2 2 10
-13 9 -13 11 0 20 10 6 11 10 3 10 -7 0 -13 7 -13 15 0 8 7 15 16 15 8 0 12 5
9 10 -7 12 -22 13 -28 3z"/>
<path d="M2360 1713 c-8 -13 -13 -14 -16 -5 -11 24 -24 11 -24 -24 0 -21 4
-33 10 -29 6 4 8 10 5 15 -3 4 4 10 15 13 14 3 20 -1 23 -17 2 -11 5 -2 6 22
1 46 -2 51 -19 25z"/>
<path d="M2428 1718 c6 -7 12 -26 14 -43 3 -26 4 -25 9 13 4 36 2 42 -14 42
-14 0 -17 -3 -9 -12z"/>
<path d="M2580 1711 c0 -11 6 -22 13 -25 10 -5 10 -7 0 -12 -17 -8 -16 -24 1
-24 23 0 29 33 9 48 -16 11 -16 14 -3 22 13 8 12 10 -2 10 -11 0 -18 -8 -18
-19z"/>
<path d="M2625 1720 c-4 -6 1 -20 11 -31 16 -17 16 -22 4 -29 -13 -8 -12 -10
3 -10 21 0 22 18 3 55 -9 17 -16 22 -21 15z"/>
<path d="M2250 1694 c-6 -14 -10 -32 -10 -40 0 -16 26 -19 35 -4 3 6 1 10 -5
10 -8 0 -9 10 -5 30 8 37 -2 40 -15 4z"/>
<path d="M2293 1685 c0 -22 2 -30 4 -17 2 12 2 30 0 40 -3 9 -5 -1 -4 -23z"/>
<path d="M2397 1688 c8 -46 13 -48 13 -5 0 21 -4 37 -10 37 -5 0 -7 -14 -3
-32z"/>
<path d="M2478 1685 c3 -25 9 -35 21 -34 10 0 11 2 4 6 -7 2 -13 18 -13 34 0
16 -4 29 -8 29 -4 0 -6 -16 -4 -35z"/>
<path d="M2740 1700 c0 -5 5 -10 10 -10 6 0 10 5 10 10 0 6 -4 10 -10 10 -5 0
-10 -4 -10 -10z"/>
<path d="M2041 3120 c14 -31 19 -36 19 -24 0 6 -7 19 -16 30 -14 18 -14 18 -3
-6z"/>
<path d="M2303 3105 c-18 -8 -33 -19 -33 -25 0 -14 7 -13 35 6 26 17 107 16
148 -1 27 -11 20 11 -8 23 -35 16 -103 14 -142 -3z"/>
<path d="M2466 2997 c-14 -10 -16 -16 -7 -22 15 -9 35 8 30 24 -3 8 -10 7 -23
-2z"/>
<path d="M2310 2970 c0 -5 7 -7 15 -4 8 4 15 8 15 10 0 2 -7 4 -15 4 -8 0 -15
-4 -15 -10z"/>
<path d="M2417 2954 c-15 -8 -27 -19 -27 -24 0 -11 28 -3 49 14 12 9 12 8 0
-11 -8 -13 -19 -23 -26 -23 -7 0 -13 -5 -13 -11 0 -5 6 -7 13 -3 20 11 57 47
57 55 0 15 -27 16 -53 3z"/>
<path d="M2657 2949 c4 -15 8 -17 14 -8 8 14 3 29 -11 29 -4 0 -6 -9 -3 -21z"/>
<path d="M2770 2935 c0 -8 5 -15 10 -15 6 0 10 7 10 15 0 8 -4 15 -10 15 -5 0
-10 -7 -10 -15z"/>
<path d="M2261 2931 c-10 -7 -10 -10 -1 -16 6 -4 16 -3 22 3 13 13 -4 23 -21
13z"/>
<path d="M2356 2906 c6 -16 4 -18 -19 -12 -34 8 -42 -7 -15 -30 12 -11 18 -13
14 -6 -4 6 -2 12 3 12 6 0 11 -6 12 -12 0 -7 5 0 11 15 7 21 7 32 -1 40 -9 9
-10 7 -5 -7z"/>
<path d="M2580 2909 c0 -5 9 -9 20 -9 11 0 20 4 20 8 0 4 -9 8 -20 9 -11 1
-20 -2 -20 -8z"/>
<path d="M2710 2902 c0 -5 9 -12 21 -15 13 -3 19 -1 16 6 -5 15 -37 22 -37 9z"/>
<path d="M2187 2889 c7 -7 15 -10 18 -7 3 3 -2 9 -12 12 -14 6 -15 5 -6 -5z"/>
<path d="M2830 2880 c0 -11 4 -20 8 -20 4 0 8 9 9 20 1 11 -2 20 -8 20 -5 0
-9 -9 -9 -20z"/>
<path d="M2530 2873 c0 -5 4 -15 10 -23 11 -18 25 -7 17 15 -6 15 -27 21 -27
8z"/>
<path d="M2391 2853 c0 -10 4 -27 9 -38 8 -18 9 -18 9 -2 1 10 6 15 11 12 13
-8 13 1 0 26 -13 24 -30 25 -29 2z"/>
<path d="M2456 2860 c9 -17 84 -109 159 -195 29 -33 64 -73 78 -90 14 -16 28
-27 31 -24 3 3 -38 57 -92 119 -108 127 -188 213 -176 190z"/>
<path d="M2633 2830 c-1 -11 2 -18 8 -15 11 7 12 35 1 35 -4 0 -8 -9 -9 -20z"/>
<path d="M2268 2823 c6 -2 18 -2 25 0 6 3 1 5 -13 5 -14 0 -19 -2 -12 -5z"/>
<path d="M2360 2820 c0 -5 5 -10 11 -10 5 0 7 5 4 10 -3 6 -8 10 -11 10 -2 0
-4 -4 -4 -10z"/>
<path d="M2720 2810 c0 -11 5 -20 10 -20 6 0 10 9 10 20 0 11 -4 20 -10 20 -5
0 -10 -9 -10 -20z"/>
<path d="M2175 2811 c-3 -6 4 -8 16 -6 30 6 37 15 11 15 -11 0 -23 -4 -27 -9z"/>
<path d="M2281 2784 c9 -25 8 -26 -8 -13 -9 8 -14 9 -10 3 4 -7 0 -14 -8 -18
-21 -8 -19 -22 4 -22 11 0 17 4 15 8 -3 4 -1 8 5 8 5 0 13 -9 16 -21 4 -11 9
-18 12 -16 2 3 0 15 -7 26 -6 12 -7 21 -1 21 5 0 4 11 -2 25 -16 33 -29 32
-16 -1z"/>
<path d="M2803 2795 c-8 -22 6 -33 17 -15 13 20 12 30 0 30 -6 0 -13 -7 -17
-15z"/>
<path d="M2310 2796 c0 -2 8 -10 18 -17 15 -13 16 -12 3 4 -13 16 -21 21 -21
13z"/>
<path d="M2460 2772 c0 -5 11 -22 25 -38 17 -19 23 -23 19 -10 -8 22 -44 61
-44 48z"/>
<path d="M2590 2771 c0 -6 5 -13 10 -16 6 -3 10 1 10 9 0 9 -4 16 -10 16 -5 0
-10 -4 -10 -9z"/>
<path d="M2174 2753 c2 -10 6 -17 10 -16 15 3 16 11 2 22 -12 10 -14 9 -12 -6z"/>
<path d="M2325 2750 c3 -5 8 -10 11 -10 2 0 4 5 4 10 0 6 -5 10 -11 10 -5 0
-7 -4 -4 -10z"/>
<path d="M2440 2753 c0 -7 10 -22 23 -35 12 -13 17 -17 11 -8 -6 8 -16 24 -22
35 -6 11 -12 15 -12 8z"/>
<path d="M2717 2733 c-24 -6 -11 -23 19 -23 15 0 24 6 24 15 0 15 -9 17 -43 8z"/>
<path d="M2320 2711 c0 -6 5 -13 10 -16 6 -3 10 1 10 9 0 9 -4 16 -10 16 -5 0
-10 -4 -10 -9z"/>
<path d="M2190 2704 c0 -10 28 -34 39 -34 8 0 7 7 -1 20 -12 18 -38 28 -38 14z"/>
<path d="M2391 2706 c2 -2 15 -9 29 -15 24 -11 24 -11 6 3 -16 13 -49 24 -35
12z"/>
<path d="M2766 2691 c-4 -5 -3 -16 0 -25 6 -15 8 -15 19 1 13 18 11 33 -5 33
-5 0 -11 -4 -14 -9z"/>
<path d="M2355 2620 c38 -41 72 -79 77 -84 4 -5 10 -7 13 -5 2 3 -32 41 -77
85 l-82 79 69 -75z"/>
<path d="M2680 2683 c0 -5 4 -15 10 -23 11 -18 25 -7 17 15 -6 15 -27 21 -27
8z"/>
<path d="M2395 2669 c-4 -6 -14 -8 -22 -4 -13 4 -14 3 -3 -10 7 -9 13 -14 14
-13 1 2 8 11 15 21 7 9 11 17 8 17 -3 0 -9 -5 -12 -11z"/>
<path d="M2560 2636 c0 -34 28 -67 55 -66 5 1 -2 8 -17 16 -21 11 -28 22 -28
43 0 16 6 32 13 34 7 3 5 6 -5 6 -14 1 -18 -7 -18 -33z"/>
<path d="M2462 2635 c6 -14 15 -25 19 -25 4 0 2 11 -4 25 -7 14 -15 25 -19 25
-4 0 -2 -11 4 -25z"/>
<path d="M2598 2632 c9 -10 19 -17 21 -16 6 5 -20 34 -30 34 -5 0 -1 -8 9 -18z"/>
<path d="M2286 2625 c4 -8 8 -15 10 -15 2 0 4 7 4 15 0 8 -4 15 -10 15 -5 0
-7 -7 -4 -15z"/>
<path d="M2415 2620 c3 -5 8 -10 11 -10 2 0 4 5 4 10 0 6 -5 10 -11 10 -5 0
-7 -4 -4 -10z"/>
<path d="M2720 2611 c0 -11 26 -22 34 -14 3 3 3 10 0 14 -7 12 -34 11 -34 0z"/>
<path d="M2340 2585 c0 -8 2 -15 4 -15 2 0 6 7 10 15 3 8 1 15 -4 15 -6 0 -10
-7 -10 -15z"/>
<path d="M2460 2573 c0 -5 5 -15 10 -23 8 -12 10 -11 10 8 0 12 -4 22 -10 22
-5 0 -10 -3 -10 -7z"/>
<path d="M2535 2560 c10 -11 20 -20 23 -20 3 0 -3 9 -13 20 -10 11 -20 20 -23
20 -3 0 3 -9 13 -20z"/>
<path d="M2502 2556 c7 -8 15 -12 17 -11 5 6 -10 25 -20 25 -5 0 -4 -6 3 -14z"/>
<path d="M2653 2541 c3 -15 1 -33 -6 -40 -8 -8 -8 -11 1 -11 7 0 13 6 14 13 5
39 3 67 -5 67 -5 0 -7 -13 -4 -29z"/>
<path d="M2453 2486 c-4 -7 -15 -16 -23 -19 -13 -5 -13 -6 1 -6 9 -1 24 8 34
19 10 11 13 20 7 20 -6 0 -15 -6 -19 -14z"/>
<path d="M2554 2469 c-3 -5 -4 -9 -2 -10 24 -6 37 -6 48 1 8 5 3 9 -14 12 -15
3 -29 1 -32 -3z"/>
<path d="M2354 2455 c11 -8 25 -15 32 -15 7 0 18 -8 23 -17 6 -10 11 -13 11
-5 0 7 -15 21 -32 32 -38 23 -62 26 -34 5z"/>
<path d="M2520 2430 c0 -5 5 -10 11 -10 5 0 7 5 4 10 -3 6 -8 10 -11 10 -2 0
-4 -4 -4 -10z"/>
<path d="M2074 2270 c0 -63 1 -89 3 -57 2 31 2 83 0 115 -2 31 -3 5 -3 -58z"/>
<path d="M3381 1687 c-8 -11 0 -28 35 -76 44 -58 48 -61 65 -45 17 16 16 19
-23 75 -43 60 -57 69 -77 46z"/>
<path d="M3218 3065 c-23 -30 -22 -35 2 -35 10 0 25 10 31 23 l12 22 -23 -20
-23 -20 12 23 c17 32 10 35 -11 7z"/>
<path d="M2330 516 c0 -18 45 -23 55 -6 3 6 0 10 -9 10 -8 0 -21 3 -30 6 -11
4 -16 1 -16 -10z"/>
<path d="M2215 480 c-3 -5 -2 -10 4 -10 5 0 13 5 16 10 3 6 2 10 -4 10 -5 0
-13 -4 -16 -10z"/>
<path d="M2276 472 c-8 -14 5 -53 18 -49 15 5 14 49 -1 54 -6 2 -14 0 -17 -5z"/>
<path d="M2420 468 c0 -7 4 -19 9 -27 11 -17 25 3 17 24 -7 18 -26 20 -26 3z"/>
<path d="M2560 455 c0 -15 4 -24 10 -20 6 3 10 12 10 20 0 8 -4 17 -10 20 -6
4 -10 -5 -10 -20z"/>
<path d="M2177 376 c-8 -19 14 -21 31 -4 9 9 12 8 12 -5 0 -9 5 -17 11 -17 6
0 9 8 7 18 -4 22 -53 29 -61 8z"/>
<path d="M2335 370 c-3 -5 0 -10 9 -10 8 0 21 -3 30 -6 11 -4 16 -1 16 10 0
18 -45 23 -55 6z"/>
<path d="M2648 373 c7 -3 16 -2 19 1 4 3 -2 6 -13 5 -11 0 -14 -3 -6 -6z"/>
<path d="M2513 346 c5 -16 21 -17 41 -3 17 13 16 14 -13 14 -17 0 -30 -5 -28
-11z"/>
<path d="M2126 305 c4 -8 10 -15 15 -15 5 0 9 7 9 15 0 8 -7 15 -15 15 -9 0
-12 -6 -9 -15z"/>
<path d="M2283 295 c0 -15 4 -24 11 -22 6 2 11 12 11 22 0 10 -5 20 -11 22 -7
2 -11 -7 -11 -22z"/>
<path d="M2430 312 c0 -19 12 -42 22 -42 14 0 5 43 -9 48 -7 2 -13 -1 -13 -6z"/>
<path d="M2603 300 c1 -11 7 -20 14 -20 7 0 13 9 13 20 0 11 -6 20 -14 20 -9
0 -14 -9 -13 -20z"/>
<path d="M2220 246 c0 -13 -5 -17 -20 -13 -11 3 -18 1 -14 -4 7 -13 41 -11 50
2 3 6 1 16 -5 22 -8 8 -11 6 -11 -7z"/>
<path d="M2370 240 c0 -5 -7 -10 -15 -10 -8 0 -15 -5 -15 -11 0 -18 55 -6 58
14 2 10 -3 17 -12 17 -9 0 -16 -4 -16 -10z"/>
<path d="M2515 221 c-3 -6 3 -9 12 -9 10 0 26 -3 36 -7 12 -5 17 -3 17 9 0 18
-54 23 -65 7z"/>
<path d="M2277 163 c-3 -5 1 -14 9 -20 14 -14 30 0 19 17 -7 12 -22 13 -28 3z"/>
<path d="M2452 146 c1 -15 7 -25 13 -23 14 5 13 39 -2 44 -9 3 -12 -4 -11 -21z"/>
<path d="M2220 111 c0 -6 5 -13 10 -16 6 -3 10 1 10 9 0 9 -4 16 -10 16 -5 0
-10 -4 -10 -9z"/>
<path d="M1881 73 c34 -57 49 -78 49 -70 0 9 -61 107 -67 107 -2 0 6 -17 18
-37z"/>
<path d="M2952 68 c-39 -59 -48 -78 -20 -46 27 32 62 88 54 88 -3 0 -18 -19
-34 -42z"/>
<path d="M3011 95 c27 -39 88 -99 93 -94 3 3 -20 30 -51 60 -31 30 -50 45 -42
34z"/>
<path d="M2352 88 c-8 -11 -3 -14 29 -14 25 -1 38 3 36 10 -5 16 -52 19 -65 4z"/>
<path d="M2316 31 c-3 -5 1 -14 9 -21 12 -10 15 -10 15 3 0 19 -16 31 -24 18z"/>
<path d="M2460 21 c0 -6 5 -13 10 -16 6 -3 10 1 10 9 0 9 -4 16 -10 16 -5 0
-10 -4 -10 -9z"/>
<path d="M2990 20 c0 -5 7 -10 16 -10 8 0 12 5 9 10 -3 6 -10 10 -16 10 -5 0
-9 -4 -9 -10z"/>
</g>
</svg>
